<svg width="24" height="24" viewBox="0 0 24 24" fill="none" xmlns="http://www.w3.org/2000/svg">
<path d="M20.626 2.625H3.37598C2.96113 2.625 2.62598 2.96016 2.62598 3.375V20.625C2.62598 21.0398 2.96113 21.375 3.37598 21.375H20.626C21.0408 21.375 21.376 21.0398 21.376 20.625V3.375C21.376 2.96016 21.0408 2.625 20.626 2.625ZM18.4604 8.09766H16.9627C15.7885 8.09766 15.5611 8.65547 15.5611 9.47578V11.2828H18.3643L17.9986 14.1117H15.5611V21.375H12.6385V14.1141H10.1939V11.2828H12.6385V9.19687C12.6385 6.77578 14.1174 5.45625 16.2783 5.45625C17.3143 5.45625 18.2025 5.53359 18.4627 5.56875V8.09766H18.4604Z" fill="#F2F3F4"/>
</svg>
