<svg width="24" height="24" viewBox="0 0 24 24" fill="none" xmlns="http://www.w3.org/2000/svg">
<path fill-rule="evenodd" clip-rule="evenodd" d="M4.5 5.25C3.25736 5.25 2.25 6.25736 2.25 7.5V8.99921C2.25 8.99918 2.25 8.99925 2.25 8.99921V16.5C2.25 17.7426 3.25736 18.75 4.5 18.75H19.5C20.7426 18.75 21.75 17.7426 21.75 16.5V9.01475C21.7502 9.00444 21.7502 8.99412 21.75 8.98379V7.5C21.75 6.25736 20.7426 5.25 19.5 5.25H4.5ZM20.25 8.59862V7.5C20.25 7.08579 19.9142 6.75 19.5 6.75H4.5C4.08579 6.75 3.75 7.08579 3.75 7.5V8.59852L12.0001 14.0986L20.25 8.59862ZM3.75 10.4013V16.5C3.75 16.9142 4.08579 17.25 4.5 17.25H19.5C19.9142 17.25 20.25 16.9142 20.25 16.5V10.4014L12.4161 15.624C12.1642 15.7919 11.836 15.7919 11.5841 15.624L3.75 10.4013Z" fill="#F2F3F4"/>
</svg>
