<svg width="24" height="24" viewBox="0 0 24 24" fill="none" xmlns="http://www.w3.org/2000/svg">
<path d="M19 11C19 11.5523 18.5523 12 18 12C17.4477 12 17 11.5523 17 11C17 10.4477 17.4477 10 18 10C18.5523 10 19 10.4477 19 11Z" fill="#F2F3F4"/>
<path d="M8.25 16C8.25 15.5858 8.58579 15.25 9 15.25H15C15.4142 15.25 15.75 15.5858 15.75 16C15.75 16.4142 15.4142 16.75 15 16.75H9C8.58579 16.75 8.25 16.4142 8.25 16Z" fill="#F2F3F4"/>
<path d="M9 17.25C8.58579 17.25 8.25 17.5858 8.25 18C8.25 18.4142 8.58579 18.75 9 18.75H15C15.4142 18.75 15.75 18.4142 15.75 18C15.75 17.5858 15.4142 17.25 15 17.25H9Z" fill="#F2F3F4"/>
<path fill-rule="evenodd" clip-rule="evenodd" d="M7.5 2.25C6.25736 2.25 5.25 3.25736 5.25 4.5V7.25H4.5C3.25736 7.25 2.25 8.25736 2.25 9.5V16.5C2.25 17.7426 3.25736 18.75 4.5 18.75H5.25V19.5C5.25 20.7426 6.25736 21.75 7.5 21.75H16.5C17.7426 21.75 18.75 20.7426 18.75 19.5V18.75H19.5C20.7426 18.75 21.75 17.7426 21.75 16.5V9.5C21.75 8.25736 20.7426 7.25 19.5 7.25H18.75V4.5C18.75 3.25736 17.7426 2.25 16.5 2.25H7.5ZM17.25 7.25V4.5C17.25 4.08579 16.9142 3.75 16.5 3.75H7.5C7.08579 3.75 6.75 4.08579 6.75 4.5V7.25H17.25ZM18.75 17.25H19.5C19.9142 17.25 20.25 16.9142 20.25 16.5V9.5C20.25 9.08579 19.9142 8.75 19.5 8.75H4.5C4.08579 8.75 3.75 9.08579 3.75 9.5V16.5C3.75 16.9142 4.08579 17.25 4.5 17.25H5.25V14.5C5.25 13.2574 6.25736 12.25 7.5 12.25H16.5C17.7426 12.25 18.75 13.2574 18.75 14.5V17.25ZM6.75 14.5C6.75 14.0858 7.08579 13.75 7.5 13.75H16.5C16.9142 13.75 17.25 14.0858 17.25 14.5V19.5C17.25 19.9142 16.9142 20.25 16.5 20.25H7.5C7.08579 20.25 6.75 19.9142 6.75 19.5V14.5Z" fill="#F2F3F4"/>
</svg>
